# xmcd
#
# Track frame offsets:
#	150
#	15140
#	26229
#	37244
#	51529
#	61283
#	76863
#	86956
#	96392
#	107753
#	119436
#	130047
#	139756
#	149468
#	161018
#	175044
#	185869
#	198082
#	212238
#	222354
#	238423
#	250667
#	251875
#	265137
#	279997
#	289462
#	323222
#	336609
#	342419
#	354307
#	355758
#
# Disc length: 4911 seconds
#
# Revision: 4
# Processed by: cddbd v1.5.2PL0 Copyright (c) Steve Scherf et al.
# Submitted via: EZCDAudioConverter 1.3.4.1
#
DISCID=f7132d1f
DTITLE=V/A - Next Stop Is Vietnam 2/13
DYEAR=2010
DGENRE=
TTITLE0=William Bell - Marching Off To War
TTITLE1=Jimmy Jack - Battle Of Vietnam
TTITLE2=Hal Willis - The Battle Of Viet Nam
TTITLE3=Johnnie Wright - Hello Vietnam
TTITLE4=Ray Hildebrand - Hello Viet Nam (Goodbye My Love)
TTITLE5=Ernest Tubb and His Texas Troubadours - It's For God, And Country, And Y
TTITLE5=ou Mom (The Ballad Of Viet Nam)
TTITLE6=Jerry Reed - Fightin' For The U.S.A.
TTITLE7=Charlie Moore and Bill Napier - Is This A Useless War
TTITLE8=SSgt. Barry Sadler, U.S. Army Special Forces - The Ballad Of The Green
TTITLE8=Berets
TTITLE9=SSgt. Barry Sadler Interviewed by four students
TTITLE10=Lesley Miller - He Wore The Green Beret
TTITLE11=Craig Arthur - The Son Of A Green Beret (A Child's Ballad Of The Gree
TTITLE11=n Beret)
TTITLE12=SSgt. Barry Sadler - The 'A' Team
TTITLE13=SSgt. Bob Lay (USMC) - Marine's Ballad
TTITLE14=Jacqueline Sharpe - Mind Your Manners, Boys
TTITLE15=CBS's Morley Safer with Marines at the village of Cam Ne (August 5
TTITLE15=, 1965)
TTITLE16=Skeeter Bonn - Off To Viet Nam (In The Green)
TTITLE17=Sue Simpson - Soldier In Viet Nam
TTITLE18=June Black - Postmarked Viet Nam
TTITLE19=Mike Thomas - A Fearless Soldier
TTITLE20=Senator Everett McKinley Dirksen - Gallant Men
TTITLE21=Bob Hope introduces Honey Ltd. while on tour in Vietnam (December 
TTITLE21=1968)
TTITLE22=Honey Ltd. - The Warrior
TTITLE23=Marty Robbins - Private Wilson White
TTITLE24=Eddy Harrison - Danny Fernandez
TTITLE25=Eric Burdon and The Animals - Sky Pilot (Part 1)
TTITLE26=Neil Ray - The Medic
TTITLE27=Connie Francis - Nurse In The U.S. Army Corps
TTITLE28=Bob Braun With The Hometowners - Brave Men Not Afraid
TTITLE29=U.S. Ambassador to Vietnam, Henry Cabot Lodge: ''Sensational Resul
TTITLE29=ts...'' (1966)
TTITLE30=CAPT Ty Herrington, U.S. Special Forces - Green Berets - When The Gre
TTITLE30=en Berets Come Home
EXTD=
EXTT0=
EXTT1=
EXTT2=
EXTT3=
EXTT4=
EXTT5=
EXTT6=
EXTT7=
EXTT8=
EXTT9=
EXTT10=
EXTT11=
EXTT12=
EXTT13=
EXTT14=
EXTT15=
EXTT16=
EXTT17=
EXTT18=
EXTT19=
EXTT20=
EXTT21=
EXTT22=
EXTT23=
EXTT24=
EXTT25=
EXTT26=
EXTT27=
EXTT28=
EXTT29=
EXTT30=
PLAYORDER=
